<svg xmlns="http://www.w3.org/2000/svg" version="1.1" viewBox="-5.0 -10.0 110.0 135.0" fill="white">
 <path d="m46.875 37.5c0 8.6289-6.9961 15.625-15.625 15.625s-15.625-6.9961-15.625-15.625 6.9961-15.625 15.625-15.625 15.625 6.9961 15.625 15.625"/>
 <path d="m76.688 41.125c-1.4688-0.9375-3.375-0.5-4.3125 0.96875l-16.594 26.094c-1.6875-6.8125-7.8125-11.906-15.125-11.906h-18.75c-8.625 0-15.625 7-15.625 15.625v12.5c0 1.7188 1.4062 3.125 3.125 3.125h43.75c1.7188 0 3.125-1.4062 3.125-3.125v-5.3438l21.375-33.594c0.9375-1.4688 0.5-3.375-0.96875-4.3125z"/>
 <path d="m90.625 12.5h-56.25c-1.7188 0-3.125 1.4062-3.125 3.125s1.4062 3.125 3.125 3.125h53.125v43.75h-12.5c-1.7188 0-3.125 1.4062-3.125 3.125s1.4062 3.125 3.125 3.125h15.625c1.7188 0 3.125-1.4062 3.125-3.125v-50c0-1.7188-1.4062-3.125-3.125-3.125z"/>
 <path d="m56.25 31.25h21.875c1.7188 0 3.125-1.4062 3.125-3.125s-1.4062-3.125-3.125-3.125h-21.875c-1.7188 0-3.125 1.4062-3.125 3.125s1.4062 3.125 3.125 3.125z"/>
 <path d="m56.25 43.75h6.25c1.7188 0 3.125-1.4062 3.125-3.125s-1.4062-3.125-3.125-3.125h-6.25c-1.7188 0-3.125 1.4062-3.125 3.125s1.4062 3.125 3.125 3.125z"/>
</svg>