<svg xmlns="http://www.w3.org/2000/svg" xmlns:xlink="http://www.w3.org/1999/xlink" version="1.1" x="0px" y="0px" viewBox="0 0 64 80" style="enable-background:new 0 0 64 64;" xml:space="preserve" fill="white"><g><g><path d="M32,33.7485046c-3.5,0-6.3300171,2.8399658-6.3300171,6.3300171c0,1.2699585,0.3699951,2.4499512,1.0200195,3.4399414    C27.8099976,45.2585144,29.7700195,46.4084778,32,46.4084778s4.1900024-1.1499634,5.3099976-2.8900146    c0.6500244-0.9899902,1.0200195-2.1699829,1.0200195-3.4399414C38.3300171,36.5884705,35.5,33.7485046,32,33.7485046z"/><path d="M39.3499756,43.9784851c-0.1099854,0.2200317-0.2399902,0.4299927-0.3699951,0.6400146    C37.460022,46.9884949,34.8400269,48.4084778,32,48.4084778s-5.460022-1.4199829-6.9899902-3.8099976    c-0.1300049-0.2000122-0.25-0.3999634-0.3599854-0.6099854c-2.2600098,0.9199829-3.8500366,3.1400146-3.8500366,5.75v7.9299927    h4.4800415v-5.4500122c0-0.5499878,0.4499512-1,1-1c0.5499878,0,1,0.4500122,1,1v5.4500122h9.4399414v-5.4500122    c0-0.5499878,0.4500122-1,1-1c0.5500488,0,1,0.4500122,1,1v5.4500122h4.4800415v-7.9299927    C43.2000122,47.1285095,41.6099854,44.9084778,39.3499756,43.9784851z"/><path d="M13.3803711,23.6260071c-0.3037109-0.4599609-0.9238281-0.5869141-1.3857422-0.2832031    c-0.4604492,0.3041992-0.5874023,0.9248047-0.2832031,1.3857422l3.5336914,5.3505859    c0.1923828,0.2910156,0.5107422,0.4487305,0.8354492,0.4487305c0.1889648,0,0.3803711-0.0537109,0.550293-0.1655273    c0.4604492-0.3041992,0.5874023-0.9248047,0.2832031-1.3857422L13.3803711,23.6260071z"/><path d="M19.0205078,32.3789368c-0.309082-0.456543-0.9321289-0.5766602-1.3891602-0.2670898    c-0.4570313,0.3100586-0.5766602,0.9316406-0.2670898,1.3891602l1.1933594,1.7617188    c0.1933594,0.2851563,0.5083008,0.4389648,0.8291016,0.4389648c0.1928711,0,0.3881836-0.0556641,0.5600586-0.171875    c0.4570313-0.3100586,0.5766602-0.9316406,0.2670898-1.3891602L19.0205078,32.3789368z"/><path d="M52.0053711,23.342804c-0.4604492-0.3037109-1.0810547-0.1767578-1.3857422,0.2832031l-3.5336914,5.3505859    c-0.3041992,0.4609375-0.1772461,1.081543,0.2832031,1.3857422c0.1699219,0.1118164,0.3613281,0.1655273,0.550293,0.1655273    c0.324707,0,0.6430664-0.1577148,0.8354492-0.4487305l3.5336914-5.3505859    C52.5927734,24.2676086,52.4658203,23.6470032,52.0053711,23.342804z"/><path d="M44.9794922,32.3789368l-1.1933594,1.7617188c-0.3095703,0.4575195-0.1899414,1.0791016,0.2670898,1.3891602    c0.171875,0.1162109,0.3671875,0.171875,0.5600586,0.171875c0.3208008,0,0.6357422-0.1538086,0.8291016-0.4389648    l1.1933594-1.7617188c0.3095703-0.4575195,0.1899414-1.0791016-0.2670898-1.3891602    C45.9116211,31.8022766,45.2895508,31.9223938,44.9794922,32.3789368z"/><rect x="26.9940186" y="6.3315125" width="10.3916626" height="2.918457"/><path d="M25.8225098,25.3906555c0.6522827,0,1.1766357-0.5116577,1.1766357-1.1639404v-3.3637085    c0-0.3580322,0.2814331-0.6394653,0.6395264-0.6394653c0.3581543,0,0.6394653,0.2814331,0.6394653,0.6394653v9.9504395    c0,0.5371704,0.4348755,0.9720459,0.9720459,0.9720459c0.5371094,0,0.9848022-0.4348755,0.9848022-0.9720459V20.7607727    c0-0.2942505,0.243042-0.5372314,0.5371704-0.5372314s0.5371704,0.242981,0.5371704,0.5372314v3.6578369    c0,0.5371704,0.4348755,0.9720459,0.9848022,0.9720459c0.5371704,0,0.9720459-0.4348755,0.9720459-0.9720459v-3.6578369    c0-0.2942505,0.242981-0.5372314,0.5371704-0.5372314c0.3069458,0,0.5499268,0.242981,0.5499268,0.5372314v2.3788452    c0,0.5371704,0.4348755,0.9720459,0.9720459,0.9720459c0.5371094,0,0.9848022-0.4348755,0.9848022-0.9720459v-2.3788452    c0-0.2942505,0.243042-0.5372314,0.5371704-0.5372314s0.5371704,0.242981,0.5371704,0.5372314v1.0998535    c0,0.5371704,0.4348755,0.9720459,0.9848022,0.9720459c0.5371704,0,0.9720459-0.4348755,0.9720459-0.9720459v-5.2693481    c0-0.8057251-0.3581543-1.5603638-0.9720459-2.0718994c-0.626709-0.4988403-0.9848022-1.253418-0.9848022-2.0591431v-1.5092773    H26.9991455V12.22995c0,0.9464722-0.4348145,1.8417358-1.1766357,2.4300537    c-0.7418213,0.5883789-1.1638184,1.4837036-1.1638184,2.4301147v7.1365967    C24.6586914,24.8789978,25.1830444,25.3906555,25.8225098,25.3906555z"/></g></g></svg>