<svg xmlns="http://www.w3.org/2000/svg" version="1.1" viewBox="-5.0 -10.0 110.0 135.0" fill="white">
 <path d="m90.125 48.293-3.418-5.25c-5.5938-9-14.297-15.625-24.457-18.625-1.082-0.33203-2.207-0.58203-3.332-0.83203v-0.003907c-5.8867-1.168-11.949-1.168-17.836 0-1.125 0.25-2.25 0.5-3.332 0.83203v0.003907c-10.16 3-18.863 9.625-24.457 18.625l-3.418 5.25c-0.66797 1.0391-0.66797 2.375 0 3.4141l3.418 5.25c5.5938 9 14.297 15.625 24.457 18.625 1.082 0.33203 2.207 0.58203 3.332 0.83203v0.003907c5.8867 1.168 11.949 1.168 17.836 0 1.125-0.25 2.25-0.5 3.332-0.83203v-0.003907c10.16-3 18.863-9.625 24.457-18.625l3.418-5.25c0.66797-1.0391 0.66797-2.375 0-3.4141zm-40.125 17.332c-4.1445 0-8.1172-1.6445-11.047-4.5781-2.9336-2.9297-4.5781-6.9023-4.5781-11.047s1.6445-8.1172 4.5781-11.047c2.9297-2.9336 6.9023-4.5781 11.047-4.5781s8.1172 1.6445 11.047 4.5781c2.9336 2.9297 4.5781 6.9023 4.5781 11.047s-1.6445 8.1172-4.5781 11.047c-2.9297 2.9336-6.9023 4.5781-11.047 4.5781z"/>
 <path d="m59.375 50c0 5.1758-4.1992 9.375-9.375 9.375s-9.375-4.1992-9.375-9.375 4.1992-9.375 9.375-9.375 9.375 4.1992 9.375 9.375"/>
</svg>