<svg xmlns="http://www.w3.org/2000/svg" version="1.1" viewBox="-5.0 -10.0 110.0 135.0" fill="white">
 <path d="m40.676 28.781c5.5352 0.050781 10.062-4.3984 10.109-9.9336 0.050782-5.5352-4.3984-10.062-9.9336-10.113-5.5352-0.050781-10.062 4.3984-10.113 9.9336-0.050781 5.5352 4.3984 10.062 9.9336 10.109z"/>
 <path d="m50.695 58.984v-19.395l0.47656-0.12109c6.2461-1.6055 11.922-5.2461 15.98-10.258l4.0039-4.9375c1.5977-1.9727 1.293-4.8594-0.67578-6.457s-4.8594-1.293-6.457 0.67578l-4.0039 4.9375c-2.8281 3.4922-6.7812 6.0273-11.133 7.1484l-1.168 0.30078c-1.7227 0.44141-3.4844 0.66797-5.2812 0.66016l-2.4219-0.003906h-0.050781c-3.0273 0-6.0273 0.44922-8.9219 1.3438-6.5391 2.0156-12.262 6.2461-16.109 11.906l-2.6758 3.9375c-1.4258 2.0977-0.88281 4.9531 1.2148 6.3789 0.78906 0.53516 1.6875 0.79297 2.5781 0.79297 1.4688 0 2.9102-0.70312 3.8008-2.0117l2.6758-3.9375c2.1719-3.1953 5.207-5.7188 8.7031-7.3164 0 0 0.003906 13.559 0.003906 16.332 0 2.7695 0.11328 7.8906 0.11328 7.8906l-8.6289-5.2422c-2.4766-1.5039-5.6992-0.71875-7.2031 1.7617-1.5039 2.4766-0.71484 5.6992 1.7617 7.2031l11.453 6.957c1.3711 0.83203 2.9258 1.2539 4.4805 1.2539 1.457 0 2.918-0.36719 4.2305-1.1055 2.7148-1.5273 4.3984-4.4102 4.3984-7.5234v-5.1094l9.1602 8.707c1.0508 1 1.4492 2.5352 1.0117 3.918l-3.4805 10.992c-0.875 2.7617 0.65625 5.7109 3.418 6.5859 0.52734 0.16797 1.0625 0.24609 1.5859 0.24609 2.2266 0 4.293-1.4297 5-3.6641l3.4805-10.992c1.6406-5.1797 0.15625-10.949-3.7852-14.695z"/>
 <path d="m96.395 33.293c-0.70312-0.61719-1.6406-0.90234-2.5703-0.78125l-19.348 2.5156c-1.6172 0.21094-2.8398 1.5977-2.8398 3.2305v16.566c-0.52344-0.10938-1.0586-0.18359-1.6289-0.18359-3.6992 0-6.5938 2.4453-6.5938 5.5703s2.8945 5.5703 6.5938 5.5703c3.6992 0 6.5977-2.4492 6.5977-5.5703v-16.371l15.926-2.0742v10.336c-0.51953-0.10547-1.0586-0.18359-1.6289-0.18359-3.6992 0-6.5938 2.4453-6.5938 5.5703s2.8984 5.5703 6.5938 5.5703c3.6992 0 6.5977-2.4453 6.5977-5.5703v-21.758c0-0.93359-0.40234-1.8242-1.1055-2.4453z"/>
 <path d="m12.57 32.48h0.003907c0.57812 0 1.0742-0.39062 1.2109-0.94531 0.9375-3.8711 4.043-6.9766 7.9141-7.9102 0 0 0-0.003906 0.003906-0.003906 0.55859-0.13672 0.94531-0.63672 0.94531-1.2148-0.003907-0.57812-0.39453-1.0742-0.94922-1.207-3.9297-0.95312-6.9648-3.9922-7.9102-7.9375-0.13672-0.55859-0.63281-0.94922-1.2148-0.94922h-0.003907c-0.57812 0-1.0742 0.39062-1.2109 0.94922-0.94531 3.9453-3.9805 6.9844-7.9102 7.9375-0.55859 0.13281-0.94922 0.63281-0.94922 1.207-0.003906 0.58203 0.38672 1.0781 0.94531 1.2188 3.8711 0.93359 6.9766 4.0391 7.9141 7.9141 0.13672 0.55859 0.63281 0.94531 1.2109 0.94531z"/>
 <path d="m75.137 13.34c3.0234 0.73047 5.4492 3.1562 6.1836 6.1836 0.10547 0.43359 0.49219 0.73828 0.94531 0.73828h0.003906c0.45312 0 0.83984-0.30469 0.94531-0.73828 0.73047-3.0234 3.1562-5.4492 6.1836-6.1797v-0.003906c0.4375-0.10547 0.73828-0.49609 0.73828-0.94922-0.003907-0.44922-0.30859-0.83984-0.73828-0.94531-3.0703-0.74219-5.4414-3.1211-6.1836-6.1992-0.10547-0.4375-0.49609-0.73828-0.94922-0.73828s-0.84375 0.30469-0.94531 0.73828c-0.73828 3.082-3.1094 5.457-6.1797 6.1992-0.43359 0.10547-0.74219 0.49609-0.74219 0.94531-0.003907 0.45312 0.30078 0.84375 0.73828 0.95312z"/>
</svg>