<svg xmlns="http://www.w3.org/2000/svg" xmlns:xlink="http://www.w3.org/1999/xlink" version="1.1" x="0px" y="0px" viewBox="0 0 90 112.5" enable-background="new 0 0 90 90" xml:space="preserve" fill="white"><path fill-rule="evenodd" clip-rule="evenodd" d="M53.469,21.425c-1.754,4.057-6.452,5.918-10.515,4.172  c-4.047-1.744-5.907-6.454-4.161-10.495c1.754-4.058,6.452-5.921,10.5-4.172C53.354,12.676,55.214,17.379,53.469,21.425z"/><path d="M37.198,28.477c-2.063,0-3.063,1.71-3.604,3.705l-4.574,16.771c-0.645,2.37,0.923,5.146,3.376,5.146h14.891v11.142  c0,5.421,8.129,5.421,8.129,0V50.025c0-2.245-1.822-4.063-4.071-4.063H40.583l2.193-7.912l3.255,3.517  c1.142,1.224,2.995,1.458,4.407,0.557l5.104-3.271h2.131c4.853,0.233,4.853-7.162,0-6.928h-3.152  c-0.662-0.005-1.312,0.188-1.875,0.543l-3.5,2.249l-4.744-5.131c-0.658-0.708-1.584-1.109-2.548-1.109H37.198z"/><path d="M33.288,56.468l2.645,7.156l-6.358,9.593c-3.35,4.579,3.848,9.355,6.766,4.49l7.514-11.318  c0.715-1.079,0.871-2.438,0.417-3.65l-2.317-6.271H33.288z"/></svg>