<svg xmlns="http://www.w3.org/2000/svg" version="1.1" viewBox="-5.0 -10.0 110.0 135.0" fill="white">
 <path d="m91.328 67.719c-0.76562-0.39062-1.7188-0.078125-2.0938 0.70312l-0.45312 0.90625c-4.2188-5.7969-7.9531-11.984-11.094-18.422-3.1719-6.5-5.8125-13.297-7.7969-20.25v-0.015625-2.9375c0-0.85938-0.70312-1.5625-1.5625-1.5625s-1.5625 0.70312-1.5625 1.5625v1.6094h-33.516v-1.6094c0-0.85938-0.70312-1.5625-1.5625-1.5625s-1.5625 0.70312-1.5625 1.5625v2.9375 0.015625c-2 6.9531-4.625 13.766-7.7969 20.25-3.1406 6.4375-6.875 12.625-11.094 18.422l-0.45312-0.90625c-0.39062-0.76562-1.3281-1.0781-2.0938-0.70312-0.76562 0.39062-1.0781 1.3281-0.70312 2.0938l1.5781 3.1406v0.03125c0.078125 0.14062 0.15625 0.26562 0.26562 0.375 0.29688 0.32812 0.71875 0.5 1.1406 0.5h0.0625 77.938 0.0625c0.4375 0 0.84375-0.17188 1.1406-0.5 0.09375-0.10938 0.1875-0.23438 0.26562-0.375v-0.03125l1.5781-3.1406c0.39062-0.76562 0.078125-1.7031-0.70312-2.0938zm-61.219 3.0156h-16.047c4.1875-5.8281 7.9062-12.016 11.047-18.453 1.8594-3.7812 3.5312-7.6875 5-11.656zm3.125 0v-30.109c1.4844 3.9688 3.1562 7.875 5 11.656 3.1562 6.4375 6.875 12.625 11.062 18.453z"/>
</svg>