<svg xmlns="http://www.w3.org/2000/svg" version="1.1" viewBox="-5.0 -10.0 110.0 135.0" fill="white">
 <path d="m73.398 32.207c0 5.9727-4.8438 10.812-10.816 10.812-5.9727 0-10.816-4.8398-10.816-10.812 0-5.9727 4.8438-10.816 10.816-10.816 5.9727 0 10.816 4.8438 10.816 10.816z"/>
 <path d="m5.8164 64.859c4.9102 3.0781 8.9062 1.5352 11.641 0.48438 1.1094-0.42578 2.0664-0.79688 2.8828-0.82422 1.1797-0.035156 2.0781 0.30078 3.6992 0.95312 2.0273 0.81641 4.5078 1.8164 8.1953 1.8164 0.38672 0 0.78906-0.011718 1.2031-0.035156 5.332-0.30078 8.5703-1.8711 11.176-3.1328 2.0352-0.98438 3.3789-1.6602 5.3711-1.5898 1.5273 0.035156 2.793 0.72266 4.3984 1.5938 2.9453 1.5977 6.9766 3.7812 12.914 0.9375 6.4375-3.0859 7.8477-3.5703 14.066-0.53125 6.0781 2.9688 10.777 0.71094 13.227-2.1953 0.75-0.89063 0.42969-2.2578-0.61328-2.7773l-1.4648-0.73047-1.8594-0.97266c-0.12109-0.0625-0.25391-0.10547-0.38672-0.14453-0.58984-0.18359-1.2422-0.13672-1.7148 0.26172-0.91406 0.77344-2.2344 0.74219-3.9375-0.089844-8.8047-4.3047-12.613-3.2773-20.512 0.50391-2.5352 1.2148-3.6797 0.59375-6.1875-0.76953-1.9766-1.0742-4.4375-2.4102-7.75-2.4883-3.7852-0.082031-6.4375 1.1953-8.7734 2.3281-2.3203 1.125-4.5117 2.1875-8.3633 2.4023-2.7148 0.15625-4.3398-0.5-6.2188-1.2578-1.832-0.73828-3.8789-1.6016-6.7031-1.4844-2.0703 0.066406-3.7891 0.73047-5.3047 1.3125-2.0703 0.79687-3.1602 1.2188-4.7344 0.34766-0.75781-0.41797-1.7148-0.21484-2.2617 0.45703l-2.3867 2.9492c-0.67578 0.83203-0.50391 2.0938 0.40234 2.6602z"/>
 <path d="m93.977 70.887-1.4648-0.73047-1.8594-0.97266c-0.12109-0.0625-0.25391-0.10547-0.38672-0.14453-0.58984-0.18359-1.2422-0.13672-1.7148 0.26172-0.91406 0.77344-2.2344 0.74219-3.9375-0.089843-8.8047-4.3047-12.617-3.2773-20.512 0.50391-2.5312 1.2148-3.6797 0.59375-6.1875-0.76953-1.9766-1.0742-4.4375-2.4102-7.75-2.4883-3.7852-0.089843-6.4375 1.1953-8.7734 2.3281-2.3203 1.125-4.5117 2.1875-8.3633 2.4023-2.7148 0.15234-4.3398-0.5-6.2188-1.2578-1.832-0.73828-3.8789-1.6016-6.7031-1.4844-2.0703 0.066407-3.7891 0.73047-5.3047 1.3125-2.0703 0.79688-3.1602 1.2188-4.7344 0.34766-0.75781-0.41797-1.7148-0.21484-2.2617 0.45703l-2.3867 2.9492c-0.67578 0.83203-0.50391 2.0938 0.40234 2.6602 4.9102 3.0781 8.9062 1.5352 11.641 0.48438 1.1094-0.42578 2.0664-0.79688 2.8828-0.82422 1.1797-0.03125 2.0781 0.30078 3.6992 0.95312 2.0273 0.81641 4.5078 1.8164 8.1953 1.8164 0.38672 0 0.78906-0.011718 1.2031-0.035156 5.332-0.30078 8.5703-1.8711 11.176-3.1328 2.0352-0.98438 3.3789-1.6641 5.3711-1.5898 1.5273 0.035156 2.793 0.72266 4.3984 1.5938 2.9453 1.5977 6.9766 3.7852 12.914 0.9375 6.4375-3.0859 7.8438-3.5703 14.066-0.53125 6.0781 2.9688 10.773 0.71094 13.227-2.1953 0.75-0.89063 0.42969-2.2578-0.61328-2.7773z"/>
 <path d="m12.543 38.719c0.39844 0 0.8125-0.058594 1.2266-0.17578l19.684-5.5898 4.4961 6.7891-21.844 14.332c1.1406-0.32422 2.4102-0.58984 3.8438-0.63672 0.22266 0 0.44531-0.015625 0.65234-0.015625 3.2109 0 5.5469 0.94531 7.4258 1.6992l0.16406 0.074218c1.5664 0.62109 2.5 1.0039 4.0391 1.0039 0.19141 0 0.38281 0 0.58984-0.015625 3.1055-0.17578 4.8047-1.0039 6.9492-2.0391 2.3516-1.1406 5.5742-2.707 10.059-2.707l0.42969 0.015625c4.1992 0.089844 7.1797 1.8008 9.4219 2.9297 2.9062 1.4648 7.4492-2.7695 15.188-2.9883 2.5586-0.074219 8.2656 1.2578 10.832 1.8555 0.60938 0.14062 1.2773 0.11719 1.7891-0.23828 0.46484-0.32031 1.082-0.38281 1.6172-0.125 0.85156 0.41016 1.8477 0.21875 2.2422-0.64062 0.49609-1.0859 0.55859-2.4023-0.20312-3.957-2.0273-4.1562-13.383-2.6758-17.156-2.0117-3.7578 0.67969-6.2109 1.8633-12.098 1.6719-5.8867-0.19141-20.203-20.75-22.082-23.293-1.2852-1.7734-3.4453-2.6914-5.6055-2.3516-0.79688 0.11719-1.6992 0.37109-2.707 0.79687l-20.395 6.8633c-2.293 0.78516-3.5625 3.2383-2.8672 5.5625 0.58984 1.9375 2.3672 3.1953 4.3047 3.1953z"/>
</svg>